<?xml version="1.0" standalone="no"?>
<!DOCTYPE svg PUBLIC "-//W3C//DTD SVG 20010904//EN"
 "http://www.w3.org/TR/2001/REC-SVG-20010904/DTD/svg10.dtd">
<svg version="1.0" xmlns="http://www.w3.org/2000/svg"
 width="212.000000pt" height="212.000000pt" viewBox="0 0 212.000000 212.000000"
 preserveAspectRatio="xMidYMid meet">
<metadata>
Created by potrace 1.14, written by Peter Selinger 2001-2017
</metadata>
<g transform="translate(0.000000,212.000000) scale(0.100000,-0.100000)"
fill="#000000" stroke="none">
<path d="M1067 1953 c-12 -11 -8 -23 7 -23 11 0 15 -20 18 -87 5 -132 -5 -309
-17 -303 -6 3 -12 -21 -15 -59 -3 -38 -10 -66 -18 -69 -6 -2 -12 -12 -12 -23
0 -10 -6 -19 -13 -19 -10 0 -14 17 -14 58 -1 81 -1 82 -18 82 -10 0 -13 10
-11 35 2 28 -1 35 -16 35 -12 0 -18 7 -18 21 0 12 -4 17 -11 14 -6 -4 -13 2
-16 14 -4 17 -13 21 -50 21 -36 0 -44 3 -39 15 3 10 -1 15 -13 15 -10 0 -18
-7 -18 -15 0 -8 6 -15 14 -15 7 0 14 -9 14 -20 3 -36 4 -41 16 -48 18 -11 22
-68 7 -96 -9 -19 -10 -25 -1 -21 7 4 4 0 -6 -8 -13 -11 -17 -24 -13 -47 4 -25
1 -33 -13 -37 -12 -3 -18 -14 -18 -31 0 -14 -7 -30 -15 -36 -8 -6 -13 -17 -11
-23 3 -7 -2 -13 -11 -13 -8 0 -20 -9 -26 -19 -5 -11 -20 -21 -32 -23 -13 -2
-22 -9 -20 -16 1 -6 -4 -12 -12 -12 -8 0 -17 -8 -21 -19 -3 -10 -13 -18 -23
-18 -35 0 -41 -3 -36 -18 4 -9 0 -15 -10 -15 -9 0 -16 -6 -16 -14 0 -8 -9 -17
-19 -21 -12 -4 -18 -12 -14 -21 3 -8 -1 -14 -10 -14 -9 0 -19 -9 -22 -20 -4
-11 -11 -18 -16 -15 -5 4 -9 -3 -9 -14 0 -12 -7 -21 -15 -21 -10 0 -15 -10
-15 -27 0 -14 -7 -34 -16 -44 -12 -13 -16 -39 -16 -111 1 -130 1 -128 15 -128
8 0 14 -14 15 -35 3 -39 -22 -50 -31 -14 -3 12 -10 18 -16 15 -6 -4 -11 9 -13
31 -2 24 -8 37 -15 36 -7 -2 -13 6 -13 17 0 11 -7 20 -15 20 -10 0 -15 -11
-15 -35 0 -24 5 -35 15 -35 11 0 15 -12 15 -49 0 -34 4 -51 15 -55 9 -3 15
-19 15 -41 0 -23 4 -34 11 -30 6 4 13 -2 16 -14 3 -12 12 -21 19 -21 8 0 14
-6 14 -14 0 -8 7 -16 15 -20 8 -3 15 -12 15 -21 0 -8 7 -15 15 -15 8 0 15 -7
15 -15 0 -10 10 -15 30 -15 24 0 30 -4 28 -17 -2 -13 6 -19 30 -23 18 -3 31
-9 30 -15 -2 -5 11 -11 27 -13 59 -5 80 -13 64 -23 -11 -7 -10 -9 6 -10 49 -4
471 -5 483 -1 6 2 12 10 12 18 0 10 13 14 46 14 28 0 43 4 39 10 -8 12 35 29
54 22 11 -4 13 -1 8 12 -5 13 -1 19 13 23 11 3 20 11 20 18 0 7 7 16 16 19 8
3 13 10 9 15 -3 5 4 13 16 16 11 4 18 13 15 20 -2 7 4 15 16 18 14 4 19 11 15
21 -5 11 0 16 13 16 15 0 18 6 15 29 -3 21 1 30 14 34 14 3 17 14 16 51 -1 32
4 50 13 55 23 13 24 379 2 386 -20 6 -19 123 1 135 18 12 18 93 -1 101 -22 9
-49 -1 -44 -16 4 -9 -5 -15 -28 -17 -18 -2 -33 -8 -33 -15 0 -20 -12 -24 -25
-8 -10 12 -10 18 0 30 7 8 9 15 4 15 -11 0 -11 130 -1 148 5 6 4 12 -1 12 -5
0 -7 11 -4 25 3 17 -1 27 -12 31 -12 4 -16 19 -16 54 0 38 -4 50 -18 54 -13 4
-18 16 -18 39 1 25 -3 31 -16 29 -12 -2 -16 2 -12 13 4 8 -1 17 -10 21 -9 3
-16 12 -16 20 0 8 -7 14 -15 14 -8 0 -15 9 -15 20 0 12 -7 20 -16 20 -10 0
-14 6 -10 15 4 10 -1 15 -14 15 -14 0 -20 7 -20 21 0 12 -4 17 -11 14 -6 -4
-13 2 -16 14 -3 12 -11 21 -18 21 -7 0 -15 9 -18 21 -3 11 -11 19 -19 18 -7
-2 -24 1 -37 5 -18 6 -21 10 -10 17 8 5 9 9 3 9 -6 0 -14 -3 -17 -7z"/>
<path d="M1030 1429 c0 -5 5 -7 10 -4 6 3 10 8 10 11 0 2 -4 4 -10 4 -5 0 -10
-5 -10 -11z"/>
</g>
</svg>
